<svg width="180" height="22" viewBox="0 0 180 22" fill="none" xmlns="http://www.w3.org/2000/svg">
<g id="Dark Logo">
<path id="Dark Logo_2" fill-rule="evenodd" clip-rule="evenodd" d="M82.044 4.91631H68.1991V4.91943V12.3063H82.044C82.9922 12.3219 83.9041 11.9317 84.5624 11.2261C85.2448 10.5392 85.6253 9.59322 85.6041 8.60975C85.6223 7.62629 85.2448 6.6803 84.5593 5.99656C83.9041 5.28784 82.9922 4.89757 82.044 4.91631ZM88.0802 13.3866L88.0289 13.4521L88.0319 13.449C87.3585 14.3482 86.501 15.0819 85.5226 15.6033L90.8764 21.7382H85.3173L80.7124 16.4618H68.1991V21.7382H64.1709V0.745174H82.044C84.0611 0.720198 85.9997 1.5538 87.4038 3.04929C88.8563 4.51043 89.6625 6.52419 89.6323 8.61912C89.6504 10.3456 89.1039 12.0253 88.0802 13.3866ZM139.196 8.3288L147.286 0.751451H153.53L141.225 12.272L141.264 21.6227H137.197L137.164 12.2595L124.892 0.751451H131.134L139.196 8.3288ZM173.55 9.1624H161.925C160.795 9.17489 159.871 8.23826 159.859 7.07059V7.03625C159.853 5.86858 160.765 4.91634 161.894 4.91322H177.376L180 0.74833H161.928C160.306 0.723353 158.745 1.38836 157.616 2.59037C156.453 3.75491 155.81 5.36592 155.831 7.03625C155.81 8.70969 156.453 10.3176 157.616 11.4821C158.748 12.6841 160.309 13.3523 161.931 13.3242H173.556C174.1 13.3117 174.625 13.5333 175 13.9423C175.797 14.7759 175.8 16.1184 175 16.9552C174.625 17.361 174.1 17.5858 173.553 17.5733H158.078L155.454 21.7382H173.553C176.908 21.732 179.623 18.9159 179.623 15.4472C179.623 11.9785 176.908 9.16552 173.553 9.15615L173.55 9.1624ZM0.000823877 7.03V10.0741L0.00685979 10.0709V21.7445H4.03503V14.1297L17.1432 14.1016L19.7642 10.0772L4.03201 10.1927V7.02688C4.02597 6.65535 4.11958 6.29006 4.30075 5.97161C4.47589 5.65003 4.73256 5.38153 5.0466 5.20045C5.36366 5.01 5.72601 4.91009 6.09441 4.91634H23.8014L27.2951 0.75145H6.09441C4.47589 0.726473 2.92079 1.38524 1.78542 2.57788C0.619846 3.74243 -0.0263527 5.35343 0.000823877 7.03ZM119.626 15.7283C118.493 16.9428 116.92 17.614 115.29 17.5797H105.283C103.652 17.614 102.079 16.9428 100.946 15.7283C99.7717 14.5575 99.1225 12.934 99.1588 11.248C99.1255 9.56211 99.7747 7.93862 100.949 6.76783C102.082 5.55333 103.652 4.88208 105.283 4.91954H115.29C116.92 4.8852 118.493 5.55645 119.623 6.76783C119.934 7.08628 120.212 7.43596 120.453 7.81061H124.892C124.681 7.1737 124.406 6.56177 124.077 5.98418C123.189 4.40127 121.915 3.08374 120.384 2.16272C120.296 2.10965 120.208 2.05969 120.118 2.00974C118.635 1.17614 116.974 0.742168 115.29 0.754657H105.283C103.595 0.74529 101.934 1.17614 100.454 2.01286L100.385 2.0521C100.319 2.08915 100.253 2.12665 100.188 2.16584C98.6575 3.08374 97.3832 4.40127 96.4924 5.9873C95.5896 7.5827 95.1185 9.40288 95.1276 11.2512C95.1185 13.1026 95.5896 14.9196 96.4924 16.5182C97.3802 18.1011 98.6545 19.4186 100.188 20.3334C100.738 20.6674 101.315 20.9453 101.916 21.1607C102.997 21.551 104.138 21.7508 105.283 21.7446H115.29C116.434 21.7477 117.572 21.551 118.653 21.1607C119.254 20.9422 119.834 20.6643 120.384 20.3334C121.915 19.4155 123.189 18.1011 124.077 16.5182C124.36 16.0186 124.602 15.4941 124.798 14.9509H120.275C120.079 15.2275 119.86 15.4857 119.626 15.7283ZM52.4695 15.7281C53.321 14.8789 53.9008 13.7862 54.1363 12.5873L54.1393 12.5904H58.2098C58.0437 13.9766 57.6058 15.3129 56.9234 16.518C56.0326 18.1009 54.7583 19.4153 53.2274 20.3332C52.6778 20.6642 52.1011 20.9421 51.5002 21.1606C51.3522 21.2137 51.2012 21.2636 51.0502 21.3136H51.0472C50.8962 21.3573 50.7453 21.401 50.5913 21.4416L50.5907 21.4417C50.4339 21.4791 50.277 21.5166 50.1202 21.5478C49.9632 21.579 49.8062 21.6071 49.6461 21.632C49.1449 21.707 48.6406 21.7444 48.1333 21.7444H44.0236V17.5795H48.1333C48.3477 17.5795 48.5591 17.5702 48.7614 17.5515C48.852 17.5421 48.9426 17.5327 49.0301 17.5202C50.3406 17.3454 51.5545 16.7116 52.4695 15.7281ZM37.0513 17.4921C37.4076 17.5515 37.767 17.5795 38.1263 17.5795V17.5733H42.5349V21.7382H38.1263C37.767 21.7413 37.4076 21.7195 37.0513 21.682C36.9064 21.6664 36.7644 21.6477 36.6225 21.6258C36.4625 21.604 36.3055 21.5758 36.1484 21.5446C35.9914 21.5134 35.8344 21.476 35.6775 21.4385L35.6774 21.4385C35.5264 21.3979 35.3724 21.3542 35.2214 21.3105H35.2184L35.2178 21.3103C35.067 21.2604 34.9162 21.2105 34.7685 21.1575C34.1676 20.9421 33.5908 20.6642 33.0413 20.3301C31.0151 19.1125 29.457 17.2143 28.6236 14.9476C28.3458 14.1858 28.1585 13.3959 28.0619 12.5873H32.1324C32.3679 13.7862 32.9477 14.8789 33.7992 15.7281C34.6688 16.6617 35.8102 17.283 37.0513 17.4921ZM36.8611 0.829464C37.2808 0.776388 37.7035 0.751411 38.1263 0.751411L38.1293 0.748291H42.5379V4.9163H38.1293C37.77 4.9163 37.4106 4.9444 37.0543 5.00372C35.8133 5.2129 34.6719 5.83108 33.8022 6.76771C32.6729 7.88854 32.0297 9.43086 32.0146 11.0481H27.9834C28.0045 9.26539 28.4756 7.52013 29.3452 5.98094C30.236 4.39803 31.5103 3.0805 33.0413 2.1626C33.1288 2.10953 33.2194 2.05645 33.307 2.00962C34.1978 1.50384 35.161 1.1448 36.1605 0.94186C36.393 0.89815 36.6255 0.860685 36.8611 0.829464ZM56.9234 5.98094C57.2525 6.56165 57.5243 7.17358 57.7387 7.81049H57.7357C58.0829 8.85327 58.2671 9.94601 58.2822 11.0481H54.251C54.2359 9.43086 53.5928 7.88854 52.4634 6.76771C51.5213 5.75302 50.2652 5.11299 48.9124 4.96313C48.6527 4.93503 48.393 4.91942 48.1303 4.91942H44.0206V0.751411H48.1303C48.556 0.751411 48.9818 0.776388 49.4046 0.829464C49.4985 0.840561 49.59 0.854123 49.6834 0.86796L49.7186 0.873173C49.7548 0.879414 49.7903 0.885655 49.8257 0.891896C49.8612 0.898145 49.8967 0.904394 49.933 0.910642C50.9929 1.10421 52.0165 1.47262 52.9617 2.00962C53.0522 2.05957 53.1398 2.10953 53.2274 2.1626C54.7614 3.0805 56.0356 4.39803 56.9234 5.98094Z" fill="#242D3F"/>
</g>
</svg>
