<svg width="180" height="21" viewBox="0 0 180 21" fill="none" xmlns="http://www.w3.org/2000/svg">
<g id="Frame" clip-path="url(#clip0_2412_20442)">
<path id="Vector" d="M180 0.0614061C179.142 1.42225 178.317 2.72375 177.501 4.03139C177.358 4.25854 177.149 4.17873 176.965 4.17873C172.765 4.18283 168.567 4.18283 164.367 4.18283C163.576 4.18283 162.785 4.17259 161.996 4.18487C160.764 4.20534 159.886 5.10779 159.892 6.32539C159.898 7.52457 160.809 8.4127 162.041 8.4127C165.877 8.4127 169.716 8.40247 173.552 8.4168C177.097 8.43112 179.882 11.5027 179.634 15.0941C179.405 18.397 176.868 20.955 173.674 20.9755C167.665 21.0123 161.654 20.9857 155.642 20.9857C155.611 20.9857 155.577 20.9755 155.516 20.9632C155.549 20.7197 155.723 20.5539 155.842 20.3656C156.5 19.3097 157.179 18.266 157.825 17.204C158.003 16.9093 158.197 16.8029 158.535 16.8049C163.475 16.8172 168.416 16.8152 173.356 16.8111C174.537 16.8111 175.314 16.2053 175.559 15.1146C175.816 13.9666 174.958 12.7265 173.819 12.6098C173.623 12.5894 173.425 12.5894 173.228 12.5894C169.49 12.5894 165.751 12.5894 162.013 12.5894C158.873 12.5894 156.417 10.4407 155.891 7.22989C155.302 3.63439 158.055 0.0777772 161.59 0.0409423C167.649 -0.0204493 173.71 0.0245712 179.771 0.0266176C179.818 0.0266176 179.868 0.0409423 180 0.0634525V0.0614061Z" fill="#252D3D"/>
<path id="Vector_2" d="M124.818 14.1995C124.349 15.5235 123.667 16.649 122.767 17.6292C120.689 19.8945 118.13 21.0037 115.105 20.9894C111.714 20.973 108.32 21.0405 104.929 20.9628C100.019 20.8502 95.9198 17.005 95.2475 11.9955C94.5277 6.63397 97.7193 1.69809 102.791 0.329057C103.543 0.126465 104.308 0.0241458 105.083 0.0241458C108.573 0.0241458 112.066 0.0159603 115.556 0.0241458C119.584 0.0343778 123.462 2.86248 124.814 6.76085C124.846 6.85293 124.865 6.94911 124.899 7.07804C123.469 7.07804 122.073 7.07394 120.677 7.08213C120.476 7.08213 120.387 6.96344 120.288 6.82633C118.973 5.01119 117.225 4.14966 115.022 4.17217C111.779 4.20491 108.534 4.17831 105.289 4.18035C102.291 4.18035 99.6947 6.42319 99.2518 9.48049C98.619 13.8516 101.998 16.7718 104.941 16.7902C108.498 16.8127 112.054 16.8209 115.611 16.7922C117.413 16.7779 118.864 15.9307 120.013 14.5269C120.217 14.2772 120.414 14.1872 120.721 14.1913C122.069 14.2076 123.418 14.1974 124.816 14.1974L124.818 14.1995Z" fill="#252D3D"/>
<path id="Vector_3" d="M27.3447 0.0224609C26.1721 1.42014 25.0746 2.72369 23.9871 4.03133C23.813 4.24006 23.5975 4.17867 23.3938 4.17867C17.7463 4.18276 12.0967 4.20322 6.44919 4.16639C4.99182 4.15616 3.96949 5.1507 4.07034 6.61387C4.1257 7.40786 4.10198 8.21209 4.07034 9.01018C4.05649 9.38467 4.1791 9.44401 4.5113 9.44197C9.39952 9.39695 14.2877 9.36625 19.1779 9.33146C19.3579 9.33146 19.5398 9.33146 19.7376 9.33146C19.7316 9.5668 19.5695 9.69777 19.4666 9.85738C18.8002 10.8888 18.118 11.9079 17.4675 12.9474C17.2756 13.2523 17.0739 13.3731 16.716 13.371C13.6372 13.3547 10.5583 13.3587 7.47746 13.3649C6.4749 13.3649 5.47036 13.4079 4.4678 13.3935C4.11582 13.3894 4.07429 13.5327 4.07627 13.8376C4.08616 16.0641 4.07231 18.2905 4.09011 20.517C4.09407 20.8915 4.01497 21.0061 3.6353 20.9959C2.54969 20.9672 1.4621 20.9774 0.374511 20.9918C0.107557 20.9959 0.00868535 20.9386 0.00868535 20.6357C0.0185725 15.8083 -0.0288859 10.9809 0.0304371 6.15343C0.0739407 2.62546 2.75139 0.0224609 6.18026 0.0224609C13.0143 0.0224609 19.8483 0.0224609 26.6803 0.0224609H27.3447Z" fill="#252D3D"/>
<path id="Vector_4" d="M124.916 0.0226475C127.022 0.0226475 128.98 0.0267402 130.937 0.0185547C131.206 0.0185547 131.355 0.190451 131.521 0.345976C133.919 2.59495 136.322 4.83574 138.705 7.10109C139.076 7.45307 139.274 7.53902 139.701 7.12974C142.1 4.83165 144.538 2.58063 146.964 0.313234C147.107 0.180219 147.231 0.0206011 147.461 0.0206011C149.45 0.0246938 151.437 0.0226475 153.549 0.0226475C153.019 0.526058 152.571 0.957845 152.118 1.38145C148.584 4.68636 145.05 7.99127 141.507 11.2859C141.295 11.4824 141.25 11.685 141.252 11.951C141.269 14.7546 141.271 17.5561 141.305 20.3596C141.311 20.7934 141.19 20.8917 140.787 20.8814C139.751 20.8507 138.713 20.8528 137.676 20.8814C137.287 20.8917 137.174 20.7771 137.176 20.3739C137.186 17.6563 137.158 14.9367 137.176 12.2191C137.18 11.7198 137.046 11.3842 136.682 11.0465C132.942 7.57176 129.219 4.07653 125.491 0.587449C125.327 0.433971 125.169 0.272306 124.914 0.0226475H124.916Z" fill="#252D3D"/>
<path id="Vector_5" d="M39.659 0.0228759C40.5152 0.0228759 41.3695 0.0331079 42.2257 0.0167368C42.5045 0.012644 42.5935 0.100639 42.5896 0.393272C42.5737 1.53106 42.5698 2.66885 42.5896 3.80664C42.5955 4.15043 42.459 4.19136 42.1802 4.18932C40.8969 4.17704 39.6135 4.18318 38.3302 4.18522C34.9982 4.18522 32.4849 6.45262 32.0795 9.85166C32.036 10.218 31.9411 10.3244 31.5812 10.3162C30.5134 10.2896 29.4436 10.3039 28.3738 10.308C28.1365 10.308 27.9803 10.3101 28.002 9.96217C28.2887 5.12451 31.5733 1.18727 36.1668 0.207051C37.3197 -0.0385156 38.4903 0.0372006 39.657 0.0269687L39.659 0.0228759Z" fill="#252D3D"/>
<path id="Vector_6" d="M47.1596 0.0229855C48.6011 -0.0506844 50.3571 0.0270782 52.0083 0.782194C55.7357 2.48888 57.8417 5.43772 58.2965 9.62667C58.3697 10.302 58.3519 10.304 57.6835 10.304C56.6632 10.304 55.6428 10.304 54.6205 10.304C54.4148 10.304 54.2744 10.3224 54.2507 10.0012C54.0035 6.67578 51.421 4.20784 48.1879 4.18328C46.9361 4.17305 45.6844 4.17305 44.4347 4.18738C44.144 4.19147 44.0333 4.12599 44.0372 3.79856C44.057 2.66077 44.055 1.52094 44.0372 0.383149C44.0333 0.084377 44.1341 0.0127535 44.405 0.0168463C45.2118 0.0332174 46.0186 0.0229855 47.1556 0.0229855H47.1596Z" fill="#252D3D"/>
<path id="Vector_7" d="M39.4115 20.9858C38.0925 21.0226 36.3781 21.039 34.7447 20.3801C31.0845 18.9026 28.8638 16.1891 28.1322 12.1863C28.0788 11.8937 28.1124 11.8037 28.4169 11.8077C29.552 11.8241 30.689 11.82 31.8241 11.8077C32.0851 11.8057 32.178 11.8917 32.2532 12.1577C33.058 15.0185 35.338 16.7825 38.2488 16.8091C39.5499 16.8193 40.8511 16.8234 42.1502 16.803C42.4983 16.7968 42.5971 16.8992 42.5892 17.2573C42.5675 18.3623 42.5675 19.4674 42.5892 20.5704C42.5952 20.908 42.4983 21.0022 42.1759 20.994C41.3869 20.9694 40.596 20.9858 39.4115 20.9858Z" fill="#252D3D"/>
<path id="Vector_8" d="M46.8037 20.9854C45.9198 20.9854 45.1803 20.9752 44.4387 20.9916C44.1619 20.9977 44.0314 20.9568 44.0373 20.615C44.061 19.4773 44.0571 18.3395 44.0393 17.2017C44.0353 16.8824 44.1382 16.8047 44.4348 16.8067C45.7834 16.8149 47.134 16.8313 48.4806 16.7863C51.0809 16.7003 53.3471 14.8463 54.051 12.2576C54.138 11.9404 54.233 11.791 54.6008 11.8013C55.6864 11.8361 56.772 11.8258 57.8576 11.8074C58.176 11.8013 58.2491 11.8954 58.2076 12.2146C57.6322 16.5468 53.8296 20.3777 49.6156 20.8893C48.6289 21.008 47.6461 20.965 46.8037 20.9895V20.9854Z" fill="#252D3D"/>
<path id="Vector_9" d="M90.5446 20.5454C88.9706 18.7426 87.3985 16.9356 85.8146 15.143C85.6168 14.9179 85.6148 14.8381 85.8719 14.6744C88.3931 13.0639 89.6804 10.7514 89.6587 7.65936C89.631 3.62389 86.3663 0.0754554 82.4529 0.0365741C76.4949 -0.0207247 70.5349 0.0242958 64.5769 0.0140639C64.2585 0.0140639 64.1992 0.124569 64.2012 0.423341C64.2091 7.15186 64.2091 13.8804 64.1992 20.6109C64.1992 20.9486 64.3139 20.9956 64.5967 20.9916C65.6665 20.9772 66.7363 20.9711 67.8061 20.9936C68.1442 20.9997 68.251 20.9158 68.245 20.5516C68.2233 19.1068 68.247 17.6621 68.2292 16.2194C68.2233 15.8347 68.3004 15.6976 68.7117 15.6996C72.5954 15.718 76.4811 15.7119 80.3667 15.7057C80.6179 15.7057 80.7919 15.7753 80.9619 15.9718C82.2552 17.4656 83.5702 18.939 84.8496 20.4452C85.1778 20.8319 85.4982 21.0182 86.0163 21.0038C87.4637 20.9629 88.9132 20.9895 90.3607 20.9895H90.9302C90.7601 20.7931 90.6553 20.6703 90.5485 20.5495L90.5446 20.5454ZM82.0218 11.5454C79.817 11.5495 77.6122 11.5454 75.4053 11.5454C73.1985 11.5454 70.9284 11.5373 68.69 11.5536C68.3162 11.5557 68.2213 11.4493 68.2233 11.0686C68.2411 8.92812 68.2411 6.7876 68.2233 4.64708C68.2193 4.25622 68.336 4.17027 68.6979 4.17027C73.1412 4.18255 77.5845 4.17437 82.0278 4.1805C84.0705 4.18255 85.6069 5.78692 85.603 7.89265C85.601 9.94926 84.0448 11.5393 82.0199 11.5434L82.0218 11.5454Z" fill="#252D3D"/>
</g>
<defs>
<clipPath id="clip0_2412_20442">
<rect width="180" height="21" fill="white"/>
</clipPath>
</defs>
</svg>
