<svg width="560" height="206" viewBox="0 0 560 206" fill="none" xmlns="http://www.w3.org/2000/svg">
<path d="M130.655 166.577H128.906V224.721H130.655V166.577Z" fill="white"/>
<path d="M317.672 166.724H315.924V224.867H317.672V166.724Z" fill="white"/>
<path d="M504.701 166.724H502.952V224.867H504.701V166.724Z" fill="white"/>
<path d="M-37.917 145.019V146.767H16.4948V145.019H-37.917Z" fill="white"/>
<path d="M55.4844 145.019V146.767H109.896V145.019H55.4844Z" fill="white"/>
<path d="M149.101 145.165V146.914H203.512V145.165H149.101Z" fill="white"/>
<path d="M242.514 145.165V146.914H296.926V145.165H242.514Z" fill="white"/>
<path d="M336.129 145.165V146.914H390.541V145.165H336.129Z" fill="white"/>
<path d="M429.542 145.165V146.914H483.954V145.165H429.542Z" fill="white"/>
<path d="M523.158 145.165V146.914H577.57V145.165H523.158Z" fill="white"/>
<path d="M35.776 66.7939H34.0273V124.938H35.776V66.7939Z" fill="white"/>
<path d="M35.776 167.141H34.0273V225.284H35.776V167.141Z" fill="white"/>
<path d="M222.803 66.9409H221.055V125.085H222.803V66.9409Z" fill="white"/>
<path d="M222.803 167.288H221.055V225.431H222.803V167.288Z" fill="white"/>
<path d="M409.833 66.9409H408.084V125.085H409.833V66.9409Z" fill="white"/>
<path d="M409.833 167.288H408.084V225.431H409.833V167.288Z" fill="white"/>
<path d="M-38.6729 44.6264V46.375H15.739V44.6264H-38.6729Z" fill="white"/>
<path d="M54.7285 44.6264V46.375H109.14V44.6264H54.7285Z" fill="white"/>
<path d="M148.355 44.7729V46.5215H202.767V44.7729H148.355Z" fill="white"/>
<path d="M241.758 44.7729V46.5215H296.17V44.7729H241.758Z" fill="white"/>
<path d="M335.373 44.7846V46.5332H389.785V44.7846H335.373Z" fill="white"/>
<path d="M428.786 44.7729V46.5215H483.198V44.7729H428.786Z" fill="white"/>
<path d="M522.402 44.7729V46.5215H576.814V44.7729H522.402Z" fill="white"/>
<path d="M130.655 -33H128.906V25.1436H130.655V-33Z" fill="white"/>
<path d="M130.655 67.3467H128.906V125.49H130.655V67.3467Z" fill="white"/>
<path d="M317.672 -32.8535H315.924V25.2901H317.672V-32.8535Z" fill="white"/>
<path d="M317.672 67.5049H315.924V125.649H317.672V67.5049Z" fill="white"/>
<path d="M504.701 -32.8535H502.952V25.2901H504.701V-32.8535Z" fill="white"/>
<path d="M504.701 67.5049H502.952V125.649H504.701V67.5049Z" fill="white"/>
<path d="M409.833 -33H408.084V25.1436H409.833V-33Z" fill="white"/>
<path d="M222.803 -33H221.055V25.1436H222.803V-33Z" fill="white"/>
<path d="M35.776 -33H34.0273V25.1436H35.776V-33Z" fill="white"/>
</svg>
