<svg width="554" height="469" viewBox="0 0 554 469" fill="none" xmlns="http://www.w3.org/2000/svg">
<path d="M376.078 417.691L376.078 419.15L450.204 419.15L450.204 417.691L376.078 417.691Z" fill="white"/>
<path d="M504.021 417.691L504.021 419.15L578.147 419.15L578.147 417.691L504.021 417.691Z" fill="white"/>
<path d="M376.078 261.619L376.078 263.079L450.204 263.079L450.204 261.619L376.078 261.619Z" fill="white"/>
<path d="M504.022 261.619L504.022 263.079L578.148 263.079L578.148 261.619L504.022 261.619Z" fill="white"/>
<path d="M376.078 105.548L376.078 107.007L450.204 107.007L450.204 105.548L376.078 105.548Z" fill="white"/>
<path d="M504.022 105.548L504.022 107.007L578.148 107.007L578.148 105.548L504.022 105.548Z" fill="white"/>
<path d="M476.008 480.089L478.237 480.089L478.237 434.684L476.008 434.684L476.008 480.089Z" fill="white"/>
<path d="M476.008 402.138L478.237 402.138L478.237 356.733L476.008 356.733L476.008 402.138Z" fill="white"/>
<path d="M476.008 324.019L478.237 324.019L478.237 278.613L476.008 278.613L476.008 324.019Z" fill="white"/>
<path d="M476.008 246.076L478.237 246.076L478.237 200.671L476.008 200.671L476.008 246.076Z" fill="white"/>
<path d="M476.008 167.946L478.237 167.946L478.237 122.541L476.008 122.541L476.008 167.946Z" fill="white"/>
<path d="M475.993 90.0044L478.223 90.0044L478.223 44.5988L475.993 44.5988L475.993 90.0044Z" fill="white"/>
<path d="M476.008 11.8838L478.237 11.8838L478.237 -33.5217L476.008 -33.5217L476.008 11.8838Z" fill="white"/>
<path d="M247.516 338.526L247.516 339.985L321.641 339.985L321.641 338.526L247.516 338.526Z" fill="white"/>
<path d="M375.462 338.526L375.462 339.985L449.587 339.985L449.587 338.526L375.462 338.526Z" fill="white"/>
<path d="M247.516 182.454L247.516 183.913L321.641 183.913L321.641 182.454L247.516 182.454Z" fill="white"/>
<path d="M375.462 182.454L375.462 183.913L449.587 183.913L449.587 182.454L375.462 182.454Z" fill="white"/>
<path d="M375.462 26.3815L375.462 27.8408L449.587 27.8408L449.587 26.3815L375.462 26.3815Z" fill="white"/>
<path d="M348.007 479.817L350.236 479.817L350.236 434.411L348.007 434.411L348.007 479.817Z" fill="white"/>
<path d="M348.019 401.875L350.248 401.875L350.248 356.469L348.019 356.469L348.019 401.875Z" fill="white"/>
<path d="M348.019 323.745L350.248 323.745L350.248 278.34L348.019 278.34L348.019 323.745Z" fill="white"/>
<path d="M348.019 245.803L350.248 245.803L350.248 200.397L348.019 200.397L348.019 245.803Z" fill="white"/>
<path d="M348.019 167.673L350.248 167.673L350.248 122.267L348.019 122.267L348.019 167.673Z" fill="white"/>
<path d="M348.019 89.7314L350.248 89.7314L350.248 44.3259L348.019 44.3259L348.019 89.7314Z" fill="white"/>
<path d="M348.019 11.6108L350.248 11.6108L350.248 -33.7947L348.019 -33.7947L348.019 11.6108Z" fill="white"/>
<path d="M220.034 479.194L222.264 479.194L222.264 433.789L220.034 433.789L220.034 479.194Z" fill="white"/>
<path d="M220.034 401.245L222.264 401.245L222.264 355.839L220.034 355.839L220.034 401.245Z" fill="white"/>
<path d="M220.034 323.124L222.264 323.124L222.264 277.718L220.034 277.718L220.034 323.124Z" fill="white"/>
<path d="M220.034 245.172L222.264 245.172L222.264 199.766L220.034 199.766L220.034 245.172Z" fill="white"/>
<path d="M220.034 167.052L222.264 167.052L222.264 121.647L220.034 121.647L220.034 167.052Z" fill="white"/>
<path d="M220.034 89.1099L222.264 89.1099L222.264 43.7043L220.034 43.7043L220.034 89.1099Z" fill="white"/>
<path d="M220.034 10.98L222.264 10.98L222.264 -34.4255L220.034 -34.4255L220.034 10.98Z" fill="white"/>
<path d="M120.307 417.691L120.307 419.15L194.432 419.15L194.432 417.691L120.307 417.691Z" fill="white"/>
<path d="M248.238 417.691L248.238 419.15L322.364 419.15L322.364 417.691L248.238 417.691Z" fill="white"/>
<path d="M120.307 261.619L120.307 263.079L194.432 263.079L194.432 261.619L120.307 261.619Z" fill="white"/>
<path d="M248.238 261.619L248.238 263.079L322.364 263.079L322.364 261.619L248.238 261.619Z" fill="white"/>
<path d="M120.307 105.548L120.307 107.007L194.432 107.007L194.432 105.548L120.307 105.548Z" fill="white"/>
<path d="M248.238 105.548L248.238 107.007L322.364 107.007L322.364 105.548L248.238 105.548Z" fill="white"/>
<path d="M92.0481 479.816L94.2773 479.816L94.2773 434.411L92.0481 434.411L92.0481 479.816Z" fill="white"/>
<path d="M92.0481 401.875L94.2773 401.875L94.2773 356.469L92.0481 356.469L92.0481 401.875Z" fill="white"/>
<path d="M92.0627 323.754L94.292 323.754L94.292 278.348L92.0627 278.348L92.0627 323.754Z" fill="white"/>
<path d="M92.0481 245.803L94.2773 245.803L94.2773 200.398L92.0481 200.398L92.0481 245.803Z" fill="white"/>
<path d="M92.0481 167.683L94.2773 167.683L94.2773 122.277L92.0481 122.277L92.0481 167.683Z" fill="white"/>
<path d="M92.0481 89.7314L94.2773 89.7314L94.2773 44.3259L92.0481 44.3259L92.0481 89.7314Z" fill="white"/>
<path d="M92.0481 11.6108L94.2773 11.6108L94.2773 -33.7947L92.0481 -33.7947L92.0481 11.6108Z" fill="white"/>
<path d="M-6.91406 338.526L-6.91406 339.985L67.2113 339.985L67.2113 338.526L-6.91406 338.526Z" fill="white"/>
<path d="M121.026 338.526L121.026 339.985L195.152 339.985L195.152 338.526L121.026 338.526Z" fill="white"/>
<path d="M-6.91406 182.454L-6.91406 183.913L67.2113 183.913L67.2113 182.454L-6.91406 182.454Z" fill="white"/>
<path d="M121.026 182.454L121.026 183.913L195.152 183.913L195.152 182.454L121.026 182.454Z" fill="white"/>
<path d="M-6.91406 26.3815L-6.91406 27.8408L67.2113 27.8408L67.2113 26.3815L-6.91406 26.3815Z" fill="white"/>
<path d="M121.026 26.3815L121.026 27.8408L195.152 27.8408L195.152 26.3815L121.026 26.3815Z" fill="white"/>
<path d="M-7.10254 105.548L-7.10254 107.007L67.0228 107.007L67.0228 105.548L-7.10254 105.548Z" fill="white"/>
<path d="M-7.10254 261.619L-7.10254 263.079L67.0228 263.079L67.0228 261.619L-7.10254 261.619Z" fill="white"/>
<path d="M-7.10254 417.691L-7.10254 419.15L67.0228 419.15L67.0228 417.691L-7.10254 417.691Z" fill="white"/>
<path d="M504.022 26.3815L504.022 27.8408L578.148 27.8408L578.148 26.3815L504.022 26.3815Z" fill="white"/>
<path d="M504.022 182.454L504.022 183.914L578.148 183.914L578.148 182.454L504.022 182.454Z" fill="white"/>
<path d="M504.021 338.526L504.021 339.985L578.147 339.985L578.147 338.526L504.021 338.526Z" fill="white"/>
</svg>
