<svg width="567" height="379" viewBox="0 0 567 379" fill="none" xmlns="http://www.w3.org/2000/svg">
<path d="M169.02 0.0200195C169.89 0.0400195 170.76 0.0600195 171.63 0.0600195C204.39 0.0600195 237.14 0.0600195 269.9 0.0600195C270.61 0.0600195 271.31 0.0600195 272.02 0.0500195C272.05 0.59002 272.11 1.13002 272.11 1.67002C272.11 25.2 272.11 48.73 272.11 72.25C272.11 74.44 272.26 74.2 270.2 74.2C244.16 74.2 218.12 74.21 192.08 74.2C186.52 74.2 180.97 74.33 175.44 74.94C160.32 76.63 146.11 81.1 132.93 88.8C122.49 94.89 113.35 102.56 105.14 111.38C97.4904 119.61 91.0504 128.68 86.1204 138.79C81.5104 148.25 78.4604 158.2 76.8004 168.59C76.0004 173.6 75.5604 178.63 75.3004 183.69C75.2204 185.16 75.3304 185.05 73.8004 185.06C60.0204 185.06 46.2304 185.06 32.4504 185.06C22.3704 185.06 12.2904 185.06 2.21039 185.06C1.83039 185.06 1.44039 185.02 1.07039 185.06C0.170386 185.17 -0.00961443 184.74 0.000385574 183.92C0.0803856 178.36 0.470386 172.82 1.08039 167.31C2.06039 158.49 3.66039 149.77 5.89039 141.17C13.6204 111.42 27.8504 85.14 48.2604 62.21C63.1004 45.53 80.4404 31.98 100.09 21.38C116.68 12.42 134.21 6.10002 152.71 2.44002C158.1 1.37002 163.54 0.59002 169.01 0.0200195H169.02Z" fill="#DADADA"/>
<path d="M566.6 179.46C566.58 181.32 566.57 183.18 566.55 185.03C563.88 185.03 561.21 185.05 558.54 185.05C536.91 185.05 515.28 185.05 493.65 185.05C493.01 185.05 492.35 185.18 491.65 184.88C491.46 182.25 491.3 179.59 491.07 176.94C489.58 159.67 484.5 143.57 475.18 128.9C464.97 112.83 451.75 99.74 435.53 89.77C424.09 82.73 411.67 78.22 398.44 75.95C391.02 74.68 383.53 74.18 376 74.19C351.38 74.23 326.75 74.21 302.13 74.2C299.89 74.2 300.15 74.44 300.15 72.17C300.15 48.7 300.15 25.22 300.15 1.75C300.15 1.21 300.17 0.66 300.18 0.12C300.89 0.1 301.59 0.06 302.3 0.06C333.57 0.06 364.83 0.06 396.1 0.06C396.59 0.06 397.08 0.02 397.56 0C405.26 0.76 412.87 2.03 420.39 3.8C451.36 11.09 478.71 25.41 502.6 46.34C520.27 61.83 534.42 80.11 545.42 100.87C554.04 117.15 559.95 134.37 563.49 152.41C564.82 159.19 565.76 166.03 566.29 172.93C566.46 175.1 566.48 177.28 566.58 179.45L566.6 179.46Z" fill="#DADADA"/>
<path d="M272.05 378.59C254.52 378.59 237 378.59 219.47 378.57C207.93 378.57 196.39 378.54 184.85 378.52C184.36 378.52 183.87 378.56 183.39 378.58C177.52 378.2 171.65 377.88 165.82 377.12C155.99 375.85 146.29 373.93 136.76 371.16C113.81 364.48 92.9204 353.74 74.0204 339.15C50.5604 321.05 32.2704 298.68 19.1504 272.12C11.3604 256.36 5.97042 239.81 2.91042 222.5C2.43042 219.77 1.97042 217.03 1.66042 214.27C1.53042 213.09 1.58042 213.08 2.72042 213.04C3.10042 213.03 3.48042 213.04 3.86042 213.04C27.6604 213.04 51.4704 213.04 75.2704 213.05C77.6404 213.05 77.3804 212.54 77.9604 215.18C81.4504 231.07 88.2804 245.41 98.3504 258.17C108.96 271.62 121.58 282.76 136.77 290.84C146.35 295.94 156.51 299.39 167.18 301.35C174.91 302.77 182.72 303.34 190.58 303.33C217.11 303.31 243.64 303.33 270.17 303.33C272.32 303.33 272.11 303.04 272.11 305.22C272.11 329.13 272.11 353.03 272.11 376.94C272.11 377.48 272.07 378.03 272.05 378.57V378.59Z" fill="#DADADA"/>
<path d="M384.79 378.51C381.96 378.53 379.131 378.57 376.301 378.57C351.521 378.57 326.74 378.57 301.95 378.57C301.35 378.57 300.76 378.5 300.16 378.47C300.16 353.91 300.16 329.35 300.15 304.79C300.15 303.22 300.11 303.35 301.73 303.35C325.37 303.35 349.01 303.35 372.65 303.35C377.55 303.35 382.46 303.39 387.35 302.98C399.3 301.97 410.88 299.41 421.96 294.71C436.62 288.48 449.17 279.27 460.15 267.82C466.85 260.83 472.721 253.22 477.521 244.8C482.961 235.27 486.79 225.13 489.07 214.41C489.35 213.08 489.351 213.07 490.771 213.07C515.121 213.07 539.47 213.07 563.82 213.07C564.04 213.07 564.261 213.09 564.471 213.07C565.131 213.01 565.35 213.34 565.26 213.95C565.01 215.78 564.8 217.62 564.5 219.45C561.84 235.75 557.25 251.48 550.391 266.52C542.301 284.28 531.87 300.54 518.81 315.07C495.03 341.52 466.13 360.02 432.171 370.56C423.221 373.34 414.081 375.29 404.801 376.61C399.461 377.37 394.1 377.89 388.72 378.24C387.4 378.24 386.07 378.04 384.79 378.52V378.51Z" fill="#DADADA"/>
</svg>
